<mxfile host="app.diagrams.net" agent="Mozilla/5.0 (Windows NT 10.0; Win64; x64) AppleWebKit/537.36 (KHTML, like Gecko) Chrome/131.0.0.0 Safari/537.36" version="24.8.3">
  <diagram name="Seite-1" id="uqVbUfsdeE1DK2UxN8wL">
    <mxGraphModel dx="1050" dy="1691" grid="1" gridSize="10" guides="1" tooltips="1" connect="1" arrows="1" fold="1" page="1" pageScale="1" pageWidth="827" pageHeight="1169" math="0" shadow="0">
      <root>
        <mxCell id="0" />
        <mxCell id="1" parent="0" />
        <mxCell id="p_eZzbEZqzI5Xo6n-zKo-18" value="" style="rounded=0;whiteSpace=wrap;html=1;" vertex="1" parent="1">
          <mxGeometry x="100" y="131" width="170" height="150" as="geometry" />
        </mxCell>
        <mxCell id="p_eZzbEZqzI5Xo6n-zKo-3" value="Qualität" style="rounded=1;whiteSpace=wrap;html=1;" vertex="1" parent="1">
          <mxGeometry x="140" y="180" width="120" height="60" as="geometry" />
        </mxCell>
        <mxCell id="p_eZzbEZqzI5Xo6n-zKo-5" value="" style="rounded=0;whiteSpace=wrap;html=1;rotation=-90;noLabel=0;backgroundOutline=0;" vertex="1" parent="1">
          <mxGeometry x="197" y="73" width="422" height="208" as="geometry" />
        </mxCell>
        <mxCell id="p_eZzbEZqzI5Xo6n-zKo-6" value="Qualitätsmerkmal" style="text;html=1;align=center;verticalAlign=middle;whiteSpace=wrap;rounded=0;" vertex="1" parent="1">
          <mxGeometry x="378" y="-20" width="60" height="30" as="geometry" />
        </mxCell>
        <mxCell id="p_eZzbEZqzI5Xo6n-zKo-7" value="Spaßfaktor" style="rounded=1;whiteSpace=wrap;html=1;" vertex="1" parent="1">
          <mxGeometry x="348" y="40" width="120" height="60" as="geometry" />
        </mxCell>
        <mxCell id="p_eZzbEZqzI5Xo6n-zKo-8" value="Support" style="rounded=1;whiteSpace=wrap;html=1;" vertex="1" parent="1">
          <mxGeometry x="348" y="110" width="120" height="60" as="geometry" />
        </mxCell>
        <mxCell id="p_eZzbEZqzI5Xo6n-zKo-9" value="Verfügbarkeit" style="rounded=1;whiteSpace=wrap;html=1;" vertex="1" parent="1">
          <mxGeometry x="348" y="180" width="120" height="60" as="geometry" />
        </mxCell>
        <mxCell id="p_eZzbEZqzI5Xo6n-zKo-10" value="Erweiterbarkeit" style="rounded=1;whiteSpace=wrap;html=1;" vertex="1" parent="1">
          <mxGeometry x="348" y="250" width="120" height="60" as="geometry" />
        </mxCell>
        <mxCell id="p_eZzbEZqzI5Xo6n-zKo-11" value="Wartbarkeit" style="rounded=1;whiteSpace=wrap;html=1;" vertex="1" parent="1">
          <mxGeometry x="348" y="320" width="120" height="60" as="geometry" />
        </mxCell>
        <mxCell id="p_eZzbEZqzI5Xo6n-zKo-4" value="" style="curved=1;endArrow=classic;html=1;rounded=0;exitX=0.5;exitY=0;exitDx=0;exitDy=0;entryX=0;entryY=0.5;entryDx=0;entryDy=0;" edge="1" parent="1" source="p_eZzbEZqzI5Xo6n-zKo-3" target="p_eZzbEZqzI5Xo6n-zKo-7">
          <mxGeometry width="50" height="50" relative="1" as="geometry">
            <mxPoint x="390" y="290" as="sourcePoint" />
            <mxPoint x="300" y="130" as="targetPoint" />
            <Array as="points">
              <mxPoint x="250" y="40" />
            </Array>
          </mxGeometry>
        </mxCell>
        <mxCell id="p_eZzbEZqzI5Xo6n-zKo-13" value="" style="curved=1;endArrow=classic;html=1;rounded=0;exitX=0.5;exitY=0;exitDx=0;exitDy=0;entryX=0;entryY=0.5;entryDx=0;entryDy=0;" edge="1" parent="1" source="p_eZzbEZqzI5Xo6n-zKo-3" target="p_eZzbEZqzI5Xo6n-zKo-8">
          <mxGeometry width="50" height="50" relative="1" as="geometry">
            <mxPoint x="190" y="210" as="sourcePoint" />
            <mxPoint x="358" y="80" as="targetPoint" />
            <Array as="points">
              <mxPoint x="260" y="50" />
            </Array>
          </mxGeometry>
        </mxCell>
        <mxCell id="p_eZzbEZqzI5Xo6n-zKo-14" value="" style="curved=1;endArrow=classic;html=1;rounded=0;exitX=1;exitY=0.5;exitDx=0;exitDy=0;entryX=0;entryY=0.5;entryDx=0;entryDy=0;" edge="1" parent="1" source="p_eZzbEZqzI5Xo6n-zKo-3" target="p_eZzbEZqzI5Xo6n-zKo-9">
          <mxGeometry width="50" height="50" relative="1" as="geometry">
            <mxPoint x="190" y="210" as="sourcePoint" />
            <mxPoint x="358" y="150" as="targetPoint" />
            <Array as="points" />
          </mxGeometry>
        </mxCell>
        <mxCell id="p_eZzbEZqzI5Xo6n-zKo-16" value="" style="curved=1;endArrow=classic;html=1;rounded=0;exitX=0.5;exitY=1;exitDx=0;exitDy=0;entryX=0;entryY=0.5;entryDx=0;entryDy=0;" edge="1" parent="1" source="p_eZzbEZqzI5Xo6n-zKo-3" target="p_eZzbEZqzI5Xo6n-zKo-10">
          <mxGeometry width="50" height="50" relative="1" as="geometry">
            <mxPoint x="190" y="210" as="sourcePoint" />
            <mxPoint x="358" y="220" as="targetPoint" />
            <Array as="points">
              <mxPoint x="260" y="320" />
            </Array>
          </mxGeometry>
        </mxCell>
        <mxCell id="p_eZzbEZqzI5Xo6n-zKo-17" value="" style="curved=1;endArrow=classic;html=1;rounded=0;exitX=0.5;exitY=1;exitDx=0;exitDy=0;entryX=0;entryY=0.5;entryDx=0;entryDy=0;" edge="1" parent="1" source="p_eZzbEZqzI5Xo6n-zKo-3" target="p_eZzbEZqzI5Xo6n-zKo-11">
          <mxGeometry width="50" height="50" relative="1" as="geometry">
            <mxPoint x="190" y="270" as="sourcePoint" />
            <mxPoint x="358" y="290" as="targetPoint" />
            <Array as="points">
              <mxPoint x="270" y="330" />
            </Array>
          </mxGeometry>
        </mxCell>
        <mxCell id="p_eZzbEZqzI5Xo6n-zKo-19" value="Platzhalter" style="text;html=1;align=center;verticalAlign=middle;whiteSpace=wrap;rounded=0;rotation=-90;" vertex="1" parent="1">
          <mxGeometry x="90" y="191" width="60" height="30" as="geometry" />
        </mxCell>
        <mxCell id="p_eZzbEZqzI5Xo6n-zKo-20" value="" style="rounded=0;whiteSpace=wrap;html=1;" vertex="1" parent="1">
          <mxGeometry x="550" y="-120" width="190" height="510" as="geometry" />
        </mxCell>
        <mxCell id="p_eZzbEZqzI5Xo6n-zKo-21" value="Verfeinerte&lt;br/&gt;Qualitätsm." style="text;html=1;align=center;verticalAlign=middle;whiteSpace=wrap;rounded=0;" vertex="1" parent="1">
          <mxGeometry x="605" y="-110" width="80" height="60" as="geometry" />
        </mxCell>
        <mxCell id="p_eZzbEZqzI5Xo6n-zKo-22" value="" style="endArrow=none;html=1;rounded=0;exitX=1;exitY=0.5;exitDx=0;exitDy=0;" edge="1" parent="1" source="p_eZzbEZqzI5Xo6n-zKo-7">
          <mxGeometry width="50" height="50" relative="1" as="geometry">
            <mxPoint x="490" y="80" as="sourcePoint" />
            <mxPoint x="540" y="40" as="targetPoint" />
          </mxGeometry>
        </mxCell>
        <mxCell id="p_eZzbEZqzI5Xo6n-zKo-23" value="" style="endArrow=classic;html=1;rounded=0;entryX=0;entryY=0.5;entryDx=0;entryDy=0;" edge="1" parent="1" target="p_eZzbEZqzI5Xo6n-zKo-24">
          <mxGeometry width="50" height="50" relative="1" as="geometry">
            <mxPoint x="540" y="40" as="sourcePoint" />
            <mxPoint x="590" y="-10" as="targetPoint" />
          </mxGeometry>
        </mxCell>
        <mxCell id="p_eZzbEZqzI5Xo6n-zKo-24" value="Atmosphäre" style="text;html=1;align=center;verticalAlign=middle;whiteSpace=wrap;rounded=0;" vertex="1" parent="1">
          <mxGeometry x="610" y="-30" width="80" height="30" as="geometry" />
        </mxCell>
        <mxCell id="p_eZzbEZqzI5Xo6n-zKo-26" value="Abwechslung" style="text;html=1;align=center;verticalAlign=middle;whiteSpace=wrap;rounded=0;" vertex="1" parent="1">
          <mxGeometry x="610" y="-5" width="90" height="30" as="geometry" />
        </mxCell>
        <mxCell id="p_eZzbEZqzI5Xo6n-zKo-27" value="" style="endArrow=classic;html=1;rounded=0;entryX=0;entryY=0.5;entryDx=0;entryDy=0;" edge="1" parent="1" target="p_eZzbEZqzI5Xo6n-zKo-26">
          <mxGeometry width="50" height="50" relative="1" as="geometry">
            <mxPoint x="540" y="40" as="sourcePoint" />
            <mxPoint x="600" y="30" as="targetPoint" />
          </mxGeometry>
        </mxCell>
        <mxCell id="p_eZzbEZqzI5Xo6n-zKo-28" value="" style="endArrow=classic;html=1;rounded=0;entryX=0;entryY=0.5;entryDx=0;entryDy=0;" edge="1" parent="1" target="p_eZzbEZqzI5Xo6n-zKo-29">
          <mxGeometry width="50" height="50" relative="1" as="geometry">
            <mxPoint x="540" y="40" as="sourcePoint" />
            <mxPoint x="610" y="40" as="targetPoint" />
          </mxGeometry>
        </mxCell>
        <mxCell id="p_eZzbEZqzI5Xo6n-zKo-29" value="Intuitives Design" style="text;html=1;align=center;verticalAlign=middle;whiteSpace=wrap;rounded=0;" vertex="1" parent="1">
          <mxGeometry x="610" y="20" width="110" height="30" as="geometry" />
        </mxCell>
        <mxCell id="p_eZzbEZqzI5Xo6n-zKo-30" value="" style="endArrow=none;html=1;rounded=0;exitX=1;exitY=0.5;exitDx=0;exitDy=0;" edge="1" parent="1" source="p_eZzbEZqzI5Xo6n-zKo-8">
          <mxGeometry width="50" height="50" relative="1" as="geometry">
            <mxPoint x="480" y="170" as="sourcePoint" />
            <mxPoint x="530" y="120" as="targetPoint" />
          </mxGeometry>
        </mxCell>
        <mxCell id="p_eZzbEZqzI5Xo6n-zKo-31" value="" style="endArrow=classic;html=1;rounded=0;entryX=0;entryY=0.5;entryDx=0;entryDy=0;" edge="1" parent="1" target="p_eZzbEZqzI5Xo6n-zKo-32">
          <mxGeometry width="50" height="50" relative="1" as="geometry">
            <mxPoint x="530" y="120" as="sourcePoint" />
            <mxPoint x="590" y="90" as="targetPoint" />
          </mxGeometry>
        </mxCell>
        <mxCell id="p_eZzbEZqzI5Xo6n-zKo-32" value="Bugreport" style="text;html=1;align=center;verticalAlign=middle;whiteSpace=wrap;rounded=0;" vertex="1" parent="1">
          <mxGeometry x="600" y="70" width="80" height="30" as="geometry" />
        </mxCell>
        <mxCell id="p_eZzbEZqzI5Xo6n-zKo-33" value="" style="endArrow=classic;html=1;rounded=0;entryX=0;entryY=0.5;entryDx=0;entryDy=0;" edge="1" parent="1" target="p_eZzbEZqzI5Xo6n-zKo-35">
          <mxGeometry width="50" height="50" relative="1" as="geometry">
            <mxPoint x="530" y="120" as="sourcePoint" />
            <mxPoint x="590" y="110" as="targetPoint" />
          </mxGeometry>
        </mxCell>
        <mxCell id="p_eZzbEZqzI5Xo6n-zKo-35" value="Kontaktwege" style="text;html=1;align=center;verticalAlign=middle;whiteSpace=wrap;rounded=0;" vertex="1" parent="1">
          <mxGeometry x="600" y="94" width="90" height="30" as="geometry" />
        </mxCell>
        <mxCell id="p_eZzbEZqzI5Xo6n-zKo-36" value="Distributionsplatform" style="text;html=1;align=center;verticalAlign=middle;whiteSpace=wrap;rounded=0;" vertex="1" parent="1">
          <mxGeometry x="580" y="150" width="130" height="30" as="geometry" />
        </mxCell>
        <mxCell id="p_eZzbEZqzI5Xo6n-zKo-38" value="" style="endArrow=none;html=1;rounded=0;exitX=1;exitY=0.5;exitDx=0;exitDy=0;" edge="1" parent="1" source="p_eZzbEZqzI5Xo6n-zKo-9">
          <mxGeometry width="50" height="50" relative="1" as="geometry">
            <mxPoint x="480" y="210" as="sourcePoint" />
            <mxPoint x="530" y="190" as="targetPoint" />
          </mxGeometry>
        </mxCell>
        <mxCell id="p_eZzbEZqzI5Xo6n-zKo-39" value="" style="endArrow=classic;html=1;rounded=0;entryX=0;entryY=0.5;entryDx=0;entryDy=0;" edge="1" parent="1" target="p_eZzbEZqzI5Xo6n-zKo-36">
          <mxGeometry width="50" height="50" relative="1" as="geometry">
            <mxPoint x="530" y="190" as="sourcePoint" />
            <mxPoint x="580" y="140" as="targetPoint" />
          </mxGeometry>
        </mxCell>
        <mxCell id="p_eZzbEZqzI5Xo6n-zKo-40" value="Hybride Eingabetypen" style="text;html=1;align=center;verticalAlign=middle;whiteSpace=wrap;rounded=0;" vertex="1" parent="1">
          <mxGeometry x="580" y="180" width="90" height="30" as="geometry" />
        </mxCell>
        <mxCell id="p_eZzbEZqzI5Xo6n-zKo-41" value="" style="endArrow=classic;html=1;rounded=0;entryX=0;entryY=0.5;entryDx=0;entryDy=0;" edge="1" parent="1" target="p_eZzbEZqzI5Xo6n-zKo-40">
          <mxGeometry width="50" height="50" relative="1" as="geometry">
            <mxPoint x="530" y="190" as="sourcePoint" />
            <mxPoint x="580" y="190" as="targetPoint" />
          </mxGeometry>
        </mxCell>
        <mxCell id="p_eZzbEZqzI5Xo6n-zKo-42" value="" style="endArrow=none;html=1;rounded=0;exitX=1;exitY=0.5;exitDx=0;exitDy=0;" edge="1" parent="1" source="p_eZzbEZqzI5Xo6n-zKo-10">
          <mxGeometry width="50" height="50" relative="1" as="geometry">
            <mxPoint x="480" y="300" as="sourcePoint" />
            <mxPoint x="530" y="270" as="targetPoint" />
          </mxGeometry>
        </mxCell>
        <mxCell id="p_eZzbEZqzI5Xo6n-zKo-44" value="DLC" style="text;html=1;align=center;verticalAlign=middle;whiteSpace=wrap;rounded=0;" vertex="1" parent="1">
          <mxGeometry x="600" y="230" width="55" height="30" as="geometry" />
        </mxCell>
        <mxCell id="p_eZzbEZqzI5Xo6n-zKo-45" value="" style="endArrow=classic;html=1;rounded=0;entryX=0;entryY=0.5;entryDx=0;entryDy=0;" edge="1" parent="1" target="p_eZzbEZqzI5Xo6n-zKo-44">
          <mxGeometry width="50" height="50" relative="1" as="geometry">
            <mxPoint x="530" y="270" as="sourcePoint" />
            <mxPoint x="580" y="220" as="targetPoint" />
          </mxGeometry>
        </mxCell>
        <mxCell id="p_eZzbEZqzI5Xo6n-zKo-46" value="Customisation" style="text;html=1;align=center;verticalAlign=middle;whiteSpace=wrap;rounded=0;" vertex="1" parent="1">
          <mxGeometry x="600" y="253" width="100" height="30" as="geometry" />
        </mxCell>
        <mxCell id="p_eZzbEZqzI5Xo6n-zKo-47" value="" style="endArrow=classic;html=1;rounded=0;entryX=0;entryY=0.5;entryDx=0;entryDy=0;" edge="1" parent="1" target="p_eZzbEZqzI5Xo6n-zKo-46">
          <mxGeometry width="50" height="50" relative="1" as="geometry">
            <mxPoint x="530" y="270" as="sourcePoint" />
            <mxPoint x="570" y="270" as="targetPoint" />
          </mxGeometry>
        </mxCell>
        <mxCell id="p_eZzbEZqzI5Xo6n-zKo-48" value="" style="endArrow=none;html=1;rounded=0;exitX=1;exitY=0.5;exitDx=0;exitDy=0;" edge="1" parent="1" source="p_eZzbEZqzI5Xo6n-zKo-11">
          <mxGeometry width="50" height="50" relative="1" as="geometry">
            <mxPoint x="480" y="360" as="sourcePoint" />
            <mxPoint x="530" y="340" as="targetPoint" />
          </mxGeometry>
        </mxCell>
        <mxCell id="p_eZzbEZqzI5Xo6n-zKo-49" value="Klare Struktur" style="text;html=1;align=center;verticalAlign=middle;whiteSpace=wrap;rounded=0;" vertex="1" parent="1">
          <mxGeometry x="600" y="310" width="90" height="30" as="geometry" />
        </mxCell>
        <mxCell id="p_eZzbEZqzI5Xo6n-zKo-50" value="" style="endArrow=classic;html=1;rounded=0;entryX=0;entryY=0.5;entryDx=0;entryDy=0;" edge="1" parent="1" target="p_eZzbEZqzI5Xo6n-zKo-49">
          <mxGeometry width="50" height="50" relative="1" as="geometry">
            <mxPoint x="530" y="340" as="sourcePoint" />
            <mxPoint x="580" y="290" as="targetPoint" />
          </mxGeometry>
        </mxCell>
        <mxCell id="p_eZzbEZqzI5Xo6n-zKo-51" value="Einheitliche Tool" style="text;html=1;align=center;verticalAlign=middle;whiteSpace=wrap;rounded=0;" vertex="1" parent="1">
          <mxGeometry x="605" y="340" width="105" height="30" as="geometry" />
        </mxCell>
        <mxCell id="p_eZzbEZqzI5Xo6n-zKo-52" value="" style="endArrow=classic;html=1;rounded=0;entryX=0;entryY=0.5;entryDx=0;entryDy=0;" edge="1" parent="1" target="p_eZzbEZqzI5Xo6n-zKo-51">
          <mxGeometry width="50" height="50" relative="1" as="geometry">
            <mxPoint x="530" y="340" as="sourcePoint" />
            <mxPoint x="580" y="370" as="targetPoint" />
          </mxGeometry>
        </mxCell>
        <mxCell id="p_eZzbEZqzI5Xo6n-zKo-55" value="" style="rounded=0;whiteSpace=wrap;html=1;" vertex="1" parent="1">
          <mxGeometry x="770" y="-120" width="170" height="510" as="geometry" />
        </mxCell>
        <mxCell id="p_eZzbEZqzI5Xo6n-zKo-56" value="Szenarien" style="text;html=1;align=center;verticalAlign=middle;whiteSpace=wrap;rounded=0;" vertex="1" parent="1">
          <mxGeometry x="825" y="-110" width="65" height="30" as="geometry" />
        </mxCell>
        <mxCell id="p_eZzbEZqzI5Xo6n-zKo-57" value="" style="endArrow=classic;html=1;rounded=0;exitX=1;exitY=0.5;exitDx=0;exitDy=0;entryX=0;entryY=0.5;entryDx=0;entryDy=0;" edge="1" parent="1" source="p_eZzbEZqzI5Xo6n-zKo-24" target="p_eZzbEZqzI5Xo6n-zKo-58">
          <mxGeometry width="50" height="50" relative="1" as="geometry">
            <mxPoint x="730" as="sourcePoint" />
            <mxPoint x="780" y="-50" as="targetPoint" />
          </mxGeometry>
        </mxCell>
        <mxCell id="p_eZzbEZqzI5Xo6n-zKo-58" value="A10" style="text;html=1;align=center;verticalAlign=middle;whiteSpace=wrap;rounded=0;" vertex="1" parent="1">
          <mxGeometry x="790" y="-31" width="60" height="30" as="geometry" />
        </mxCell>
        <mxCell id="p_eZzbEZqzI5Xo6n-zKo-60" value="" style="endArrow=classic;html=1;rounded=0;exitX=1;exitY=0.5;exitDx=0;exitDy=0;entryX=0;entryY=0.5;entryDx=0;entryDy=0;" edge="1" parent="1" source="p_eZzbEZqzI5Xo6n-zKo-26" target="p_eZzbEZqzI5Xo6n-zKo-61">
          <mxGeometry width="50" height="50" relative="1" as="geometry">
            <mxPoint x="750" y="50" as="sourcePoint" />
            <mxPoint x="790" y="10" as="targetPoint" />
          </mxGeometry>
        </mxCell>
        <mxCell id="p_eZzbEZqzI5Xo6n-zKo-61" value="A20" style="text;html=1;align=center;verticalAlign=middle;whiteSpace=wrap;rounded=0;" vertex="1" parent="1">
          <mxGeometry x="790" y="-6" width="60" height="30" as="geometry" />
        </mxCell>
        <mxCell id="p_eZzbEZqzI5Xo6n-zKo-63" value="A30" style="text;html=1;align=center;verticalAlign=middle;whiteSpace=wrap;rounded=0;" vertex="1" parent="1">
          <mxGeometry x="790" y="19" width="60" height="30" as="geometry" />
        </mxCell>
        <mxCell id="p_eZzbEZqzI5Xo6n-zKo-64" value="" style="endArrow=classic;html=1;rounded=0;exitX=1;exitY=0.5;exitDx=0;exitDy=0;entryX=0;entryY=0.5;entryDx=0;entryDy=0;" edge="1" parent="1" source="p_eZzbEZqzI5Xo6n-zKo-29" target="p_eZzbEZqzI5Xo6n-zKo-63">
          <mxGeometry width="50" height="50" relative="1" as="geometry">
            <mxPoint x="750" y="90" as="sourcePoint" />
            <mxPoint x="1000" y="-30" as="targetPoint" />
          </mxGeometry>
        </mxCell>
        <mxCell id="p_eZzbEZqzI5Xo6n-zKo-65" value="B10" style="text;html=1;align=center;verticalAlign=middle;whiteSpace=wrap;rounded=0;" vertex="1" parent="1">
          <mxGeometry x="790" y="70" width="60" height="30" as="geometry" />
        </mxCell>
        <mxCell id="p_eZzbEZqzI5Xo6n-zKo-66" value="" style="endArrow=classic;html=1;rounded=0;exitX=1;exitY=0.5;exitDx=0;exitDy=0;entryX=0;entryY=0.5;entryDx=0;entryDy=0;" edge="1" parent="1" source="p_eZzbEZqzI5Xo6n-zKo-32" target="p_eZzbEZqzI5Xo6n-zKo-65">
          <mxGeometry width="50" height="50" relative="1" as="geometry">
            <mxPoint x="680" y="85" as="sourcePoint" />
            <mxPoint x="770" y="87.25" as="targetPoint" />
          </mxGeometry>
        </mxCell>
        <mxCell id="p_eZzbEZqzI5Xo6n-zKo-68" value="B20" style="text;html=1;align=center;verticalAlign=middle;whiteSpace=wrap;rounded=0;" vertex="1" parent="1">
          <mxGeometry x="790" y="94" width="60" height="30" as="geometry" />
        </mxCell>
        <mxCell id="p_eZzbEZqzI5Xo6n-zKo-69" value="" style="endArrow=classic;html=1;rounded=0;entryX=0;entryY=0.5;entryDx=0;entryDy=0;exitX=1;exitY=0.5;exitDx=0;exitDy=0;" edge="1" parent="1" target="p_eZzbEZqzI5Xo6n-zKo-68" source="p_eZzbEZqzI5Xo6n-zKo-35">
          <mxGeometry width="50" height="50" relative="1" as="geometry">
            <mxPoint x="690" y="109" as="sourcePoint" />
            <mxPoint x="780" y="111.25" as="targetPoint" />
          </mxGeometry>
        </mxCell>
        <mxCell id="p_eZzbEZqzI5Xo6n-zKo-70" value="C10" style="text;html=1;align=center;verticalAlign=middle;whiteSpace=wrap;rounded=0;" vertex="1" parent="1">
          <mxGeometry x="790" y="150" width="60" height="30" as="geometry" />
        </mxCell>
        <mxCell id="p_eZzbEZqzI5Xo6n-zKo-71" value="" style="endArrow=classic;html=1;rounded=0;exitX=1;exitY=0.5;exitDx=0;exitDy=0;entryX=0;entryY=0.5;entryDx=0;entryDy=0;" edge="1" parent="1" target="p_eZzbEZqzI5Xo6n-zKo-70" source="p_eZzbEZqzI5Xo6n-zKo-36">
          <mxGeometry width="50" height="50" relative="1" as="geometry">
            <mxPoint x="710" y="165" as="sourcePoint" />
            <mxPoint x="800" y="167.25" as="targetPoint" />
          </mxGeometry>
        </mxCell>
        <mxCell id="p_eZzbEZqzI5Xo6n-zKo-72" value="C20" style="text;html=1;align=center;verticalAlign=middle;whiteSpace=wrap;rounded=0;" vertex="1" parent="1">
          <mxGeometry x="790" y="180" width="60" height="30" as="geometry" />
        </mxCell>
        <mxCell id="p_eZzbEZqzI5Xo6n-zKo-73" value="" style="endArrow=classic;html=1;rounded=0;exitX=1;exitY=0.5;exitDx=0;exitDy=0;entryX=0;entryY=0.5;entryDx=0;entryDy=0;" edge="1" parent="1" target="p_eZzbEZqzI5Xo6n-zKo-72" source="p_eZzbEZqzI5Xo6n-zKo-40">
          <mxGeometry width="50" height="50" relative="1" as="geometry">
            <mxPoint x="670" y="195" as="sourcePoint" />
            <mxPoint x="760" y="197.25" as="targetPoint" />
          </mxGeometry>
        </mxCell>
        <mxCell id="p_eZzbEZqzI5Xo6n-zKo-74" value="D10" style="text;html=1;align=center;verticalAlign=middle;whiteSpace=wrap;rounded=0;" vertex="1" parent="1">
          <mxGeometry x="790" y="230" width="60" height="30" as="geometry" />
        </mxCell>
        <mxCell id="p_eZzbEZqzI5Xo6n-zKo-75" value="" style="endArrow=classic;html=1;rounded=0;exitX=1;exitY=0.5;exitDx=0;exitDy=0;entryX=0;entryY=0.5;entryDx=0;entryDy=0;" edge="1" parent="1" target="p_eZzbEZqzI5Xo6n-zKo-74" source="p_eZzbEZqzI5Xo6n-zKo-44">
          <mxGeometry width="50" height="50" relative="1" as="geometry">
            <mxPoint x="655" y="245" as="sourcePoint" />
            <mxPoint x="745" y="247.25" as="targetPoint" />
          </mxGeometry>
        </mxCell>
        <mxCell id="p_eZzbEZqzI5Xo6n-zKo-76" value="D20" style="text;html=1;align=center;verticalAlign=middle;whiteSpace=wrap;rounded=0;" vertex="1" parent="1">
          <mxGeometry x="790" y="253" width="60" height="30" as="geometry" />
        </mxCell>
        <mxCell id="p_eZzbEZqzI5Xo6n-zKo-77" value="" style="endArrow=classic;html=1;rounded=0;exitX=1;exitY=0.5;exitDx=0;exitDy=0;entryX=0;entryY=0.5;entryDx=0;entryDy=0;" edge="1" parent="1" target="p_eZzbEZqzI5Xo6n-zKo-76" source="p_eZzbEZqzI5Xo6n-zKo-46">
          <mxGeometry width="50" height="50" relative="1" as="geometry">
            <mxPoint x="695" y="268" as="sourcePoint" />
            <mxPoint x="785" y="270.25" as="targetPoint" />
          </mxGeometry>
        </mxCell>
        <mxCell id="p_eZzbEZqzI5Xo6n-zKo-78" value="E10" style="text;html=1;align=center;verticalAlign=middle;whiteSpace=wrap;rounded=0;" vertex="1" parent="1">
          <mxGeometry x="790" y="310" width="60" height="30" as="geometry" />
        </mxCell>
        <mxCell id="p_eZzbEZqzI5Xo6n-zKo-79" value="" style="endArrow=classic;html=1;rounded=0;exitX=1;exitY=0.5;exitDx=0;exitDy=0;entryX=0;entryY=0.5;entryDx=0;entryDy=0;" edge="1" parent="1" target="p_eZzbEZqzI5Xo6n-zKo-78" source="p_eZzbEZqzI5Xo6n-zKo-49">
          <mxGeometry width="50" height="50" relative="1" as="geometry">
            <mxPoint x="690" y="325" as="sourcePoint" />
            <mxPoint x="780" y="327.25" as="targetPoint" />
          </mxGeometry>
        </mxCell>
        <mxCell id="p_eZzbEZqzI5Xo6n-zKo-80" value="E20" style="text;html=1;align=center;verticalAlign=middle;whiteSpace=wrap;rounded=0;" vertex="1" parent="1">
          <mxGeometry x="790" y="340" width="60" height="30" as="geometry" />
        </mxCell>
        <mxCell id="p_eZzbEZqzI5Xo6n-zKo-81" value="" style="endArrow=classic;html=1;rounded=0;exitX=1;exitY=0.5;exitDx=0;exitDy=0;entryX=0;entryY=0.5;entryDx=0;entryDy=0;" edge="1" parent="1" target="p_eZzbEZqzI5Xo6n-zKo-80" source="p_eZzbEZqzI5Xo6n-zKo-51">
          <mxGeometry width="50" height="50" relative="1" as="geometry">
            <mxPoint x="700" y="355" as="sourcePoint" />
            <mxPoint x="790" y="357.25" as="targetPoint" />
          </mxGeometry>
        </mxCell>
      </root>
    </mxGraphModel>
  </diagram>
</mxfile>
